<?xml version="1.0" encoding="UTF-8" standalone="no"?><svg xmlns="http://www.w3.org/2000/svg" xmlns:xlink="http://www.w3.org/1999/xlink" fill="#000000" height="310.7" preserveAspectRatio="xMidYMid meet" version="1" viewBox="11.2 12.2 603.6 310.7" width="603.6" zoomAndPan="magnify"><g id="change1_1"><path d="M527.264,322.945c-48.248,0-87.5-39.252-87.5-87.5c0-0.276,0.224-0.5,0.5-0.5s0.5,0.224,0.5,0.5 c0,47.696,38.804,86.5,86.5,86.5s86.5-38.804,86.5-86.5v-135.7c0-47.696-38.804-86.5-86.5-86.5s-86.5,38.804-86.5,86.5v75.899 c0,0.276-0.224,0.5-0.5,0.5s-0.5-0.224-0.5-0.5V99.745c0-48.248,39.252-87.5,87.5-87.5s87.5,39.252,87.5,87.5v135.7 C614.764,283.693,575.512,322.945,527.264,322.945z M227.436,200.11l-11.7-13c-0.185-0.205-0.501-0.223-0.706-0.037 c-0.205,0.186-0.222,0.501-0.037,0.707l11.039,12.265h-25.367c-8.547,0-15.5,6.953-15.5,15.5v19.9c0,47.696-38.804,86.5-86.5,86.5 s-86.5-38.804-86.5-86.5v-135.7c0-47.696,38.804-86.5,86.5-86.5s86.5,38.804,86.5,86.5v74.2c0,0.276,0.224,0.5,0.5,0.5 s0.5-0.224,0.5-0.5v-74.2c0-48.248-39.252-87.5-87.5-87.5s-87.5,39.252-87.5,87.5v135.7c0,48.248,39.252,87.5,87.5,87.5 s87.5-39.252,87.5-87.5v-19.9c0-7.995,6.505-14.5,14.5-14.5h25.194l-10.867,12.167c-0.184,0.206-0.166,0.521,0.04,0.706 c0.095,0.085,0.214,0.127,0.333,0.127c0.137,0,0.274-0.057,0.373-0.167l11.7-13.1C227.608,200.587,227.607,200.3,227.436,200.11z M442.437,200.112l-11.6-13c-0.184-0.205-0.499-0.225-0.706-0.04c-0.206,0.184-0.224,0.5-0.04,0.706l10.946,12.267h-26.372 c-8.547,0-15.5,6.953-15.5,15.5v19.9c0,47.696-38.804,86.5-86.5,86.5s-86.5-38.804-86.5-86.5c0-0.276-0.224-0.5-0.5-0.5 s-0.5,0.224-0.5,0.5c0,48.248,39.252,87.5,87.5,87.5c48.248,0,87.5-39.252,87.5-87.5v-19.9c0-7.995,6.505-14.5,14.5-14.5h26.2 l-10.775,12.169c-0.184,0.206-0.164,0.522,0.043,0.705c0.095,0.085,0.213,0.126,0.331,0.126c0.138,0,0.275-0.057,0.374-0.169 l11.6-13.1C442.606,200.586,442.606,200.301,442.437,200.112z M225.665,176.245c0.276,0,0.5-0.224,0.5-0.5v-76 c0-47.696,38.804-86.5,86.5-86.5s86.5,38.804,86.5,86.5v74.2c0,0.276,0.224,0.5,0.5,0.5s0.5-0.224,0.5-0.5v-74.2 c0-48.248-39.252-87.5-87.5-87.5c-48.248,0-87.5,39.252-87.5,87.5v76C225.165,176.021,225.388,176.245,225.665,176.245z"/></g><g id="change2_1"><path d="M527.265,312.05L527.265,312.05c-42.839,0-77.566-34.727-77.566-77.566V100.705 c0-42.838,34.727-77.566,77.566-77.566h0c42.838,0,77.566,34.727,77.566,77.566v133.779 C604.83,277.322,570.103,312.05,527.265,312.05z" fill="#ffffff"/></g><g id="change3_1"><path d="M313.054,311.714L313.054,311.714c-42.839,0-77.566-34.727-77.566-77.566V100.37 c0-42.838,34.727-77.566,77.566-77.566h0c42.838,0,77.566,34.727,77.566,77.566v133.779 C390.62,276.987,355.893,311.714,313.054,311.714z" fill="#5dc243"/></g><g id="change4_1"><path d="M99.078,311.714L99.078,311.714c-42.839,0-77.566-34.727-77.566-77.566V100.37 c0-42.838,34.727-77.566,77.566-77.566h0c42.838,0,77.566,34.727,77.566,77.566v133.779 C176.644,276.987,141.917,311.714,99.078,311.714z" fill="#ffffff"/></g></svg>