<?xml version="1.0" encoding="UTF-8"?><svg xmlns="http://www.w3.org/2000/svg" xmlns:xlink="http://www.w3.org/1999/xlink" height="401.8" preserveAspectRatio="xMidYMid meet" version="1.0" viewBox="7.3 43.6 485.7 401.8" width="485.7" zoomAndPan="magnify"><g id="change1_1"><path d="M355.245,121.832c0.652,1.817-5.582,5.717-13.925,8.71c-8.343,2.991-15.633,3.944-16.285,2.127 c-0.652-1.819,5.582-5.717,13.925-8.71C347.302,120.966,354.592,120.015,355.245,121.832z M250.141,112.837 c-2.947,0-5.336,3.073-5.336,6.862c0,3.789,2.39,6.862,5.336,6.862c2.947,0,5.336-3.073,5.336-6.862 C255.478,115.91,253.088,112.837,250.141,112.837z M161.324,123.959c-8.343-2.993-15.633-3.944-16.285-2.127 c-0.652,1.817,5.582,5.717,13.925,8.71c8.343,2.993,15.633,3.944,16.285,2.127C175.901,130.852,169.667,126.952,161.324,123.959z M100.338,153.072c-12.156,0-22.011,1.709-22.011,3.818c0,2.109,9.855,3.818,22.011,3.818c12.156,0,22.009-1.709,22.009-3.818 C122.347,154.781,112.492,153.072,100.338,153.072z M345.401,214.171l70.438,231.198l-98.143-259.141 c-13.832,6.638-38.909,11.075-67.554,11.075c-28.645,0-53.724-4.437-67.553-11.075L84.435,445.369l70.438-231.198 C68.099,203.404,7.274,178.371,7.274,149.206c0-32.122,73.79-59.231,174.774-67.79c13.878-22.661,39.174-37.83,68.089-37.83 c28.915,0,54.21,15.169,68.089,37.83C419.21,89.976,493,117.084,493,149.206C493,178.371,432.178,203.401,345.401,214.171z M205.176,71.179c0,0,1.366-0.738,3.681-2.124c1.13-0.749,2.613-1.439,4.235-2.279c0.811-0.411,1.676-0.849,2.586-1.311 c0.944-0.405,1.936-0.831,2.971-1.276c2.02-0.97,4.362-1.658,6.742-2.544c1.178-0.482,2.48-0.718,3.76-1.079 c1.306-0.281,2.564-0.811,3.942-1.006c1.353-0.259,2.73-0.524,4.123-0.789c1.39-0.259,2.834-0.312,4.258-0.531l2.155-0.27 c0.723-0.064,1.455-0.057,2.182-0.088l2.191-0.073l1.096-0.038l0.548-0.018l0.23-0.009l0.049,0.002l0.144,0.009 c3.033,0.157,6.214,0.139,8.913,0.584l2.093,0.25c0.696,0.046,1.393,0.152,2.089,0.309c1.393,0.27,2.768,0.537,4.121,0.8 c1.36,0.252,2.626,0.752,3.928,1.05c1.287,0.345,2.571,0.632,3.747,1.116c2.385,0.882,4.704,1.618,6.723,2.595 c1.032,0.451,2.023,0.88,2.964,1.291c0.913,0.475,1.78,0.926,2.591,1.351c1.634,0.853,3.101,1.563,4.209,2.303 c2.281,1.386,3.658,2.144,3.658,2.144s-1.017-1.149-2.922-3.101c-0.924-1.017-2.169-2.1-3.663-3.283 c-0.743-0.606-1.532-1.249-2.363-1.928c-0.897-0.586-1.841-1.205-2.827-1.848c-1.006-0.612-1.996-1.382-3.139-1.941 c-1.141-0.575-2.321-1.172-3.533-1.784c-1.2-0.657-2.518-1.123-3.849-1.654c-1.337-0.511-2.699-1.074-4.134-1.472 c-2.88-0.754-5.823-1.693-9.044-2.049c-3.247-0.63-6.21-0.601-9.284-0.794l-0.427-0.013l-0.298,0.018l-0.599,0.033l-1.196,0.066 l-2.383,0.135c-0.794,0.055-1.587,0.071-2.372,0.157l-2.339,0.343c-1.55,0.245-3.104,0.411-4.591,0.807 c-1.486,0.393-2.951,0.78-4.395,1.163c-1.452,0.332-2.803,0.937-4.147,1.43c-1.327,0.546-2.664,0.959-3.866,1.614 c-2.449,1.191-4.753,2.314-6.7,3.672c-0.988,0.639-1.937,1.251-2.836,1.833c-0.847,0.674-1.649,1.313-2.403,1.912 c-1.512,1.185-2.768,2.25-3.678,3.243C206.217,70.027,205.176,71.179,205.176,71.179z M326.248,169.44 c1.824-1.937,2.818-3.972,2.818-6.077c0-12.673-35.336-22.946-78.925-22.946c-43.589,0-78.925,10.273-78.925,22.946 c0,2.105,0.993,4.14,2.818,6.075l-64.691,205.3l73.244-199.507c13.829,6.638,38.909,11.075,67.553,11.075 c28.645,0,53.722-4.437,67.554-11.075l73.244,199.509L326.248,169.44z M428.654,154.87c0-24.558-79.922-44.464-178.512-44.464 c-98.588,0-178.512,19.906-178.512,44.464c0.002,16.584,36.466,31.048,90.508,38.692l2.575-7.315 c-1.309,0.382-2.721,0.756-4.211,1.105c-7.666,1.802-14.38,2.323-14.994,1.165c-0.615-1.158,5.1-3.557,12.768-5.359 c2.916-0.685,5.69-1.185,8.049-1.477l0.984-2.796c-24.71-5.213-40.217-12.724-40.217-21.076c0-15.739,55.093-28.499,123.053-28.499 c67.961,0,123.053,12.76,123.053,28.499c0,8.352-15.51,15.863-40.22,21.076l0.986,2.796c2.356,0.294,5.131,0.791,8.047,1.477 c7.666,1.802,13.383,4.202,12.768,5.359c-0.615,1.158-7.328,0.637-14.997-1.165c-1.49-0.349-2.9-0.723-4.211-1.103l2.575,7.313 C392.19,185.917,428.654,171.456,428.654,154.87z M485.234,150.588c0.301,0.873,0.568,1.645,0.796,2.31 c0.106,0.696,0.194,1.284,0.267,1.757c0.139,0.955,0.21,1.448,0.21,1.448s-0.024-0.497-0.071-1.461 c-0.029-0.482-0.042-1.088-0.102-1.806c-0.168-0.699-0.363-1.51-0.584-2.427c-1.028-3.628-3.926-8.663-9.234-13.425 c-5.286-4.748-12.583-9.444-21.427-13.717c-8.831-4.315-19.179-8.332-30.703-11.842c-11.508-3.568-24.164-6.78-37.675-9.488 c-13.504-2.741-27.84-5.135-42.749-6.937c-14.906-1.806-30.349-3.371-46.087-4.207c-3.935-0.197-7.885-0.393-11.847-0.592 c-3.963-0.144-7.94-0.29-11.922-0.436c-3.995-0.093-7.998-0.186-12.004-0.279l-11.933-0.117 c-16.071,0.062-32.025,0.535-47.773,1.428c-15.735,0.856-31.181,2.405-46.087,4.216c-14.908,1.799-29.244,4.205-42.749,6.939 c-13.511,2.704-26.162,5.924-37.673,9.486c-11.524,3.508-21.869,7.529-30.703,11.838c-8.845,4.271-16.14,8.966-21.427,13.712 c-5.308,4.762-8.204,9.791-9.236,13.427c-0.221,0.92-0.416,1.733-0.584,2.436c-0.04,0.712-0.073,1.309-0.099,1.791 c-0.046,0.964-0.071,1.461-0.071,1.461s0.071-0.493,0.21-1.448c0.073-0.475,0.161-1.068,0.27-1.771 c0.23-0.663,0.495-1.432,0.796-2.301c1.32-3.429,4.596-7.872,10.003-12.061c5.44-4.16,12.859-8.089,21.715-11.727 c8.873-3.621,19.234-6.868,30.701-9.791c11.475-2.898,24.071-5.409,37.465-7.651c13.401-2.215,27.63-3.972,42.379-5.511 c14.754-1.527,30.058-2.496,45.614-3.3c15.545-0.769,31.426-1.119,47.187-1.063l11.935,0.04c3.944,0.062,7.881,0.124,11.811,0.186 c3.939,0.115,7.872,0.23,11.791,0.343c3.919,0.166,7.826,0.334,11.716,0.497c15.554,0.825,30.86,1.777,45.611,3.307 c14.747,1.536,28.974,3.305,42.377,5.511c13.394,2.242,25.988,4.759,37.463,7.651c11.466,2.918,21.825,6.172,30.699,9.786 c8.853,3.636,16.272,7.565,21.712,11.725C480.634,142.714,483.91,147.148,485.234,150.588z M323.606,165.122 c-0.272-1.15-1.072-2.807-2.673-4.388c-1.57-1.612-3.824-3.163-6.546-4.638c-2.723-1.477-5.938-2.867-9.539-4.068 c-7.189-2.445-15.85-4.355-25.21-5.626c-4.682-0.617-9.536-1.163-14.486-1.446c-4.923-0.305-10.025-0.471-14.999-0.491 c-5.062,0.024-10.074,0.186-15.028,0.493c-4.95,0.292-9.802,0.829-14.484,1.448c-9.36,1.273-18.021,3.181-25.207,5.626 c-3.599,1.2-6.813,2.595-9.539,4.067c-2.721,1.475-4.976,3.024-6.546,4.636c-1.603,1.583-2.401,3.234-2.675,4.39 c-0.155,0.586-0.181,1.03-0.172,1.335c-0.009,0.303-0.013,0.46-0.013,0.46s0.024-0.155,0.069-0.455 c0.027-0.303,0.113-0.749,0.327-1.282c0.387-1.083,1.366-2.498,2.998-3.873c3.27-2.799,9.097-5.137,16.221-7.065 c7.165-1.892,15.726-3.342,24.962-4.311c4.618-0.504,9.41-0.809,14.283-1.081c4.866-0.254,9.846-0.367,14.776-0.345 c5.018-0.018,9.908,0.091,14.804,0.347c4.87,0.279,9.665,0.577,14.28,1.083c9.236,0.973,17.798,2.421,24.962,4.311 c7.125,1.93,12.952,4.264,16.224,7.063c1.631,1.375,2.608,2.788,2.998,3.873c0.216,0.539,0.301,0.977,0.327,1.278 c0.046,0.301,0.069,0.455,0.069,0.455s-0.004-0.157-0.013-0.46C323.788,166.153,323.759,165.702,323.606,165.122z M399.947,153.075 c-12.156,0-22.011,1.709-22.011,3.818c0,2.107,9.855,3.818,22.011,3.818c12.156,0,22.011-1.709,22.011-3.818 C421.958,154.783,412.103,153.075,399.947,153.075z" fill="inherit"/></g></svg>