<?xml version="1.0" encoding="UTF-8" standalone="no"?><svg xmlns="http://www.w3.org/2000/svg" xmlns:xlink="http://www.w3.org/1999/xlink" fill="#000000" height="198.4" preserveAspectRatio="xMidYMid meet" version="1.1" viewBox="130.8 113.4 163.5 198.4" width="163.5" zoomAndPan="magnify">
 <g id="surface1">
  <g id="change1_1"><path d="m294.36 192.59c0 43.74-36.61 119.22-81.76 119.22s-81.75-75.48-81.75-119.22 36.6-79.2 81.75-79.2 81.76 35.46 81.76 79.2" fill="#ffffff"/></g>
  <g id="change2_1"><path d="m202.84 252.11s-27.32-102.63-49.22-77.37c-21.89 25.26 25.04 93.16 49.22 77.37" fill="#110e20"/></g>
  <g id="change3_1"><path d="m185.08 211.57s-13.92-33.96-21.54-33.67c-7.63 0.3 16.73 47.94 21.54 33.67" fill="#ffffff"/></g>
  <g id="change2_2"><path d="m222.36 252.11s27.32-102.63 49.22-77.37c21.89 25.26-25.03 93.16-49.22 77.37" fill="#110e20"/></g>
  <g id="change3_2"><path d="m240.12 211.57s13.92-33.96 21.54-33.67c7.63 0.3-16.72 47.94-21.54 33.67" fill="#ffffff"/></g>
 </g>
</svg>